<svg width="32" height="32" viewBox="0 0 32 32" fill="none" xmlns="http://www.w3.org/2000/svg">
<g id="arcticons:netease-open-class">
<path id="Vector" d="M14.035 7.51997L11.499 10.172M15.493 8.2453L11.4104 12.5406M16.8557 8.99197L11.403 14.5766M18.335 9.85997L11.4804 17.0566M19.647 10.6766L12.3617 18.33M20.9617 11.552L13.907 18.9666M22.271 12.5266L16.8804 18.2746M12.059 20.4753C11.1704 19.946 11.1837 7.4953 12.0744 6.94197C12.965 6.38864 23.1877 12.4753 23.1857 13.5586C23.1837 14.642 12.9484 21.004 12.059 20.4753Z" stroke="#2F3F93" stroke-linecap="round" stroke-linejoin="round"/>
<path id="Vector_2" d="M11.5924 18.5459C13.1624 18.6173 13.7217 19.1673 14.0364 19.8373M9.42374 5.2146L9.46641 25.6553M5.70508 21.9799L17.9444 22.1286M24.5724 21.1479C24.5329 20.9582 24.5696 20.7606 24.6747 20.5978C24.7797 20.435 24.9446 20.3201 25.1337 20.2779C25.2783 20.2489 25.4283 20.2636 25.5644 20.3201C25.7006 20.3766 25.8169 20.4725 25.8984 20.5954C25.9799 20.7183 26.0229 20.8627 26.0219 21.0101C26.021 21.1576 25.9761 21.3014 25.8931 21.4233C25.6424 21.7259 24.8597 22.6113 24.8597 22.6113L26.2957 22.3293M24.4111 24.3906C24.368 24.5254 24.2893 24.6461 24.1834 24.74C24.0774 24.8339 23.9481 24.8974 23.8091 24.9239C23.5969 24.9649 23.3771 24.9203 23.1977 24.7997C23.0184 24.6792 22.894 24.4925 22.8517 24.2806L22.7497 23.7606C22.7088 23.5484 22.7534 23.3286 22.874 23.1492C22.9945 22.9699 23.1811 22.8455 23.3931 22.8033C23.6757 22.7466 23.9664 22.8493 24.1517 23.0699M18.4937 24.6353C18.4602 24.4264 18.5092 24.2126 18.6302 24.0391C18.7513 23.8655 18.935 23.7458 19.1427 23.7052C19.3503 23.6645 19.5656 23.7061 19.7432 23.8212C19.9208 23.9363 20.0467 24.1158 20.0944 24.3219M20.0944 24.3219L20.3457 25.6019M20.0944 24.3219C20.0728 24.2171 20.0728 24.1089 20.093 24.0038C20.1132 23.8986 20.1539 23.7985 20.2128 23.7091C20.2717 23.6196 20.3476 23.5427 20.4363 23.4826C20.5249 23.4225 20.6245 23.3805 20.7294 23.3589C20.8343 23.3374 20.9424 23.3366 21.0476 23.3568C21.1527 23.377 21.2529 23.4178 21.3423 23.4767C21.4317 23.5356 21.5087 23.6115 21.5687 23.7001C21.6288 23.7888 21.6708 23.8884 21.6924 23.9933L21.6957 24.0079L21.9464 25.2879M18.3371 23.8353L18.7451 25.9159M15.7577 25.3259L17.3871 25.2513M15.7191 24.2999L17.3484 24.2246M15.3011 26.6833L13.6731 26.7939L13.4517 23.5393L15.0791 23.4279M13.5624 25.1666L14.6204 25.0946" stroke="#2F3F93" stroke-linecap="round" stroke-linejoin="round"/>

<path id="Vector_3" d="M25.667 3.66675H6.33366C4.8609 3.66675 3.66699 4.86066 3.66699 6.33341V25.6667C3.66699 27.1395 4.8609 28.3334 6.33366 28.3334H25.667C27.1398 28.3334 28.3337 27.1395 28.3337 25.6667V6.33341C28.3337 4.86066 27.1398 3.66675 25.667 3.66675Z" stroke="#2F3F93" stroke-linecap="round" stroke-linejoin="round"/>
</g>
</svg>
